<?xml version="1.0" encoding="UTF-8" standalone="no"?>
<svg
   xmlns:dc="http://purl.org/dc/elements/1.1/"
   xmlns:cc="http://creativecommons.org/ns#"
   xmlns:rdf="http://www.w3.org/1999/02/22-rdf-syntax-ns#"
   xmlns:svg="http://www.w3.org/2000/svg"
   xmlns="http://www.w3.org/2000/svg"
   xmlns:sodipodi="http://sodipodi.sourceforge.net/DTD/sodipodi-0.dtd"
   xmlns:inkscape="http://www.inkscape.org/namespaces/inkscape"
   aria-hidden="true"
   role="img"
   width="1.17em"
   height="1em"
   preserveAspectRatio="xMidYMid meet"
   viewBox="0 0 1792 1536"
   version="1.1"
   id="svg4"
   sodipodi:docname="heart-1.svg"
   inkscape:version="0.92.4 (5da689c313, 2019-01-14)">
  <metadata
     id="metadata10">
    <rdf:RDF>
      <cc:Work
         rdf:about="">
        <dc:format>image/svg+xml</dc:format>
        <dc:type
           rdf:resource="http://purl.org/dc/dcmitype/StillImage" />
        <dc:title />
      </cc:Work>
    </rdf:RDF>
  </metadata>
  <defs
     id="defs8" />
  <sodipodi:namedview
     pagecolor="#ffffff"
     bordercolor="#666666"
     borderopacity="1"
     objecttolerance="10"
     gridtolerance="10"
     guidetolerance="10"
     inkscape:pageopacity="0"
     inkscape:pageshadow="2"
     inkscape:window-width="2560"
     inkscape:window-height="1377"
     id="namedview6"
     showgrid="false"
     inkscape:zoom="0.43457604"
     inkscape:cx="468.12252"
     inkscape:cy="398.9087"
     inkscape:window-x="-8"
     inkscape:window-y="-8"
     inkscape:window-maximized="1"
     inkscape:current-layer="svg4" />
  <path
     d="M896 1536q-26 0-44-18L228 916q-10-8-27.5-26T145 824.5T77 727T23.5 606T0 468q0-220 127-344T478 0q62 0 126.5 21.5t120 58T820 148t76 68q36-36 76-68t95.5-68.5t120-58T1314 0q224 0 351 124t127 344q0 221-229 450l-623 600q-18 18-44 18z"
     id="path2"
     fill="currentColor"
     style="stroke-width:80;stroke-miterlimit:4;stroke-dasharray:none;paint-order:stroke fill markers;stroke:#000000;stroke-opacity:1;fill:#000000;fill-opacity:0;stroke-linejoin:miter;stroke-linecap:square" />
</svg>
