<?xml version="1.0" standalone="no"?>
<!DOCTYPE svg PUBLIC "-//W3C//DTD SVG 20010904//EN"
 "http://www.w3.org/TR/2001/REC-SVG-20010904/DTD/svg10.dtd">
<svg version="1.0" xmlns="http://www.w3.org/2000/svg" viewBox="0 0 64.000000 64.000000"
 preserveAspectRatio="xMidYMid meet">
<metadata>
Created by potrace 1.16, written by Peter Selinger 2001-2019
</metadata>
<g transform="translate(0.000000,64.000000) scale(0.012500,-0.012500)"
fill="#000000" stroke="none">
<path d="M1210 4905 c-8 -2 -49 -9 -90 -15 -451 -73 -856 -441 -1030 -935 -71
-204 -95 -366 -87 -611 6 -201 25 -311 84 -484 58 -172 143 -328 257 -470 66
-83 2078 -2105 2140 -2151 28 -21 51 -29 79 -29 38 0 49 10 636 589 328 324
814 809 1082 1078 535 538 565 574 675 798 113 233 154 400 161 669 6 186 -3
294 -37 441 -100 431 -383 809 -742 991 -166 84 -315 122 -504 131 -412 19
-815 -215 -1236 -717 l-38 -45 -37 45 c-407 485 -804 723 -1198 719 -55 -1
-107 -3 -115 -4z m318 -246 c278 -71 608 -332 882 -699 78 -104 97 -119 150
-119 53 0 72 15 150 119 276 369 599 625 887 701 117 32 295 29 426 -5 439
-114 770 -510 858 -1027 56 -324 -20 -710 -189 -973 -80 -124 -227 -277 -1136
-1186 l-996 -995 -856 855 c-1195 1194 -1240 1242 -1339 1439 -124 248 -174
583 -126 860 74 436 318 785 664 955 206 101 423 127 625 75z"/>
</g>
</svg>
